<?xml version="1.0" encoding="iso-8859-1"?>
<!-- Uploaded to: SVG Repo, www.svgrepo.com, Generator: SVG Repo Mixer Tools -->
<svg height="800px" width="800px" version="1.1" id="Capa_1" xmlns="http://www.w3.org/2000/svg" xmlns:xlink="http://www.w3.org/1999/xlink" 
	 viewBox="0 0 37.596 37.596" xml:space="preserve">
<g>
	<path style="fill:#010002;" d="M37.595,33.595V0H4.001c-2.209,0-4,1.791-4,4v33.596h33.595
		C35.804,37.595,37.595,35.804,37.595,33.595z M17.173,33.631c-1.87,0-3.391-1.598-3.391-3.469c0-1.871,1.521-3.43,3.391-3.43
		c1.91,0,3.431,1.559,3.431,3.43C20.604,32.033,19.084,33.631,17.173,33.631z M23.254,19.209c-1.555,1.148-2.996,2.065-3.6,3.501
		c-0.477,1.137-1.259,2.19-2.492,2.19h-2.248c-0.196-1.95,0.077-3.586,0.934-5.028c1.324-2.299,4.795-3.702,4.795-7.132
		c0-1.676-1.053-2.845-3.04-2.845c-2.067,0-3.86,1.247-5.185,2.885l-1.555-3.928c-0.453-1.147-0.066-2.741,1.009-3.343
		c1.996-1.119,4.233-1.599,6.627-1.539c4.911,0.195,8.341,2.728,8.419,7.483C26.919,14.376,26.1,17.105,23.254,19.209z"/>
</g>
</svg>